<?xml version="1.0" encoding="UTF-8"?>
<svg id="Layer_2" data-name="Layer 2" xmlns="http://www.w3.org/2000/svg" viewBox="0 0 300 300">
  <defs>
    <style>
      .cls-1 {
        fill: #fff;
      }

      .cls-2 {
        fill: #022d60;
      }

      .cls-3 {
        fill: #fec402;
      }
    </style>
  </defs>
  <g id="Layer_1-2" data-name="Layer 1">
    <g>
      <rect class="cls-2" width="300" height="300"/>
      <g>
        <path class="cls-1" d="m22.46,165.5v-30.1h24.17c5.3,0,9.47.94,12.49,2.82,3.02,1.88,4.54,4.65,4.54,8.32s-1.51,6.44-4.54,8.32c-3.02,1.88-7.19,2.82-12.49,2.82h-10.54v7.83h-13.63Zm13.63-16.68h10.32c2.35,0,3.53-.65,3.53-1.94s-1.18-1.89-3.53-1.89h-10.32v3.83Z"/>
        <path class="cls-1" d="m68,135.06c1.26-.8,2.91-1.2,4.95-1.2s3.68.4,4.95,1.2c1.26.8,1.89,1.88,1.89,3.23s-.63,2.42-1.89,3.23c-1.26.8-2.91,1.2-4.95,1.2s-3.69-.4-4.97-1.2c-1.28-.8-1.91-1.88-1.91-3.23s.65-2.42,1.94-3.23Zm11.14,8.94v21.5h-12.43v-21.5h12.43Z"/>
        <path class="cls-1" d="m87.09,146.41c2.98-2.04,7.07-3.05,12.26-3.05,2.81,0,6.71.34,11.7,1.03l-.77,7.35c-2.87-.77-5.65-1.16-8.34-1.16-4.96,0-7.44,1.32-7.44,3.96,0,1.32.68,2.34,2.04,3.05,1.36.72,3.29,1.08,5.78,1.08,3.61,0,6.81-.6,9.59-1.81v7.78c-4.27,1-8.5,1.51-12.69,1.51-4.99,0-9.01-1.02-12.06-3.05-3.05-2.04-4.58-4.84-4.58-8.43s1.51-6.22,4.52-8.26Z"/>
        <path class="cls-1" d="m127.21,134.11v18.23l7.78-8.34h13.12l-9.63,9.98,11.4,11.52h-13.67l-8.99-9.42v9.42h-12.43v-31.39h12.43Z"/>
        <path class="cls-3" d="m175.67,135.4h15.52l16.6,30.1h-13.67l-2.75-5.03h-15.87l-2.8,5.03h-13.63l16.6-30.1Zm11.83,18.06l-4.09-7.35-4.04,7.35h8.13Z"/>
        <path class="cls-3" d="m210.89,146.41c2.38-2.04,5.6-3.05,9.68-3.05,4.36,0,7.73,1.15,10.11,3.44v-12.69h12.47v31.39h-11.4c-.46-.63-.79-1.61-.99-2.92-2.44,2.38-5.83,3.57-10.19,3.57-4.07,0-7.3-1.02-9.7-3.05-2.39-2.04-3.59-4.82-3.59-8.34s1.2-6.31,3.61-8.34Zm8.13,8.34c0,1.23.54,2.21,1.61,2.95,1.08.73,2.43,1.1,4.06,1.1,1.43,0,2.67-.29,3.72-.86,1.05-.57,1.8-1.33,2.26-2.28v-1.85c-.43-.95-1.18-1.71-2.24-2.28-1.06-.57-2.31-.86-3.74-.86-1.63,0-2.99.37-4.06,1.1-1.08.73-1.61,1.73-1.61,2.99Z"/>
        <path class="cls-3" d="m246.88,156.99c4.39,2.09,9.27,3.14,14.66,3.14,3.12,0,4.69-.29,4.69-.86,0-.17-.14-.32-.43-.43-.29-.11-.72-.22-1.31-.3-.59-.09-1.19-.16-1.81-.22-.62-.06-1.41-.14-2.37-.24-.96-.1-1.8-.19-2.52-.28-7.31-.95-10.97-3.2-10.97-6.75,0-2.32,1.39-4.19,4.17-5.59,2.78-1.4,6.35-2.11,10.71-2.11,2.09,0,4.41.15,6.97.45,2.55.3,4.5.6,5.85.88v6.58c-1.29-.49-3.06-.93-5.31-1.33-2.25-.4-4.36-.6-6.34-.6-3.24,0-4.86.29-4.86.86,0,.14.12.27.37.37.24.1.63.19,1.16.26.53.07,1.06.13,1.59.17.53.04,1.25.11,2.17.19.92.09,1.69.16,2.32.22,1.58.17,2.98.39,4.21.65,1.23.26,2.47.64,3.72,1.14,1.25.5,2.22,1.19,2.92,2.06.7.87,1.05,1.9,1.05,3.07,0,2.44-1.43,4.35-4.28,5.74-2.85,1.39-6.49,2.09-10.9,2.09-2.84,0-5.88-.27-9.12-.8-3.24-.53-5.49-1.05-6.75-1.57l.39-6.79Z"/>
      </g>
    </g>
  </g>
</svg>